# xmcd
#
# Track frame offsets:
#	150
#	37155
#	112123
#	153536
#	211829
#	237846
#	276829
#	309788
#
# Disc length: 4496 seconds
#
# Revision: 0
# Processed by: cddbd v1.5.2PL0 Copyright (c) Steve Scherf et al.
# Submitted via: audiograbber 1.83.01
#
DISCID=6a118e08
DTITLE=Grateful Dead - 93-12-10 Los Angeles Sports Arena, Los Angeles CA
DYEAR=1900
DGENRE=
TTITLE0=Corrina
TTITLE1=Terrapin Station
TTITLE2=Drums
TTITLE3=Space
TTITLE4=I Need A Miracle
TTITLE5=Standing On The Moon
TTITLE6=Not Fade Away
TTITLE7=Brokedown Palace
EXTD=
EXTT0=
EXTT1=
EXTT2=
EXTT3=
EXTT4=
EXTT5=
EXTT6=
EXTT7=
PLAYORDER=
